<svg xmlns="http://www.w3.org/2000/svg" style="display:none">
  <symbol id="bug" viewBox="0 0 128 128">
    <circle fill="#90c12c" cx="64" cy="64" r="64"/>
    <path fill="#fff" d="M89,40c-3.93,9.55-11.51,12.15-21,13-5.9,17.33.62,36.47,13,49C104.88,90.71,109.26,57,89,40Z"/>
    <path fill="#fff" d="M72.43,45.31A22.08,22.08,0,0,0,83,36a38.15,38.15,0,0,0-8.24-3.3l5.56-6.8a3,3,0,0,0-4.64-3.8l-7.55,9.23a31.72,31.72,0,0,0-8.26,0L52.32,22.1a3,3,0,1,0-4.64,3.8l5.56,6.8A38.15,38.15,0,0,0,45,36,22.12,22.12,0,0,0,72.43,45.31Z"/>
    <path fill="#fff" d="M47,50a23,23,0,0,1-8-10c-1,.87-15.43,13.39-13,33,2.46,19.85,19.86,28.46,21,29C59.38,89.47,65.9,70.33,60,53,57.93,52.82,51.49,53.14,47,50Z"/>
  </symbol>

  <symbol id="dark" viewBox="0 0 128 128">
    <circle fill="#5a5366" cx="64" cy="64" r="64"/>
    <path fill="#fff" d="M96.15,64A31.49,31.49,0,0,1,54.39,93.78a31.5,31.5,0,0,0,0-59.56A31.49,31.49,0,0,1,96.15,64ZM64,24a40,40,0,1,0,40,40A40,40,0,0,0,64,24Z"/>
  </symbol>

  <symbol id="dragon" viewBox="0 0 128 128">
    <circle fill="#096dc4" cx="64" cy="64" r="64"/>
    <path fill="#fff" d="M100.89,57.49a37.4,37.4,0,0,0-35.17-30,18.22,18.22,0,0,0-.22-13A33,33,0,0,1,57,26a20.84,20.84,0,0,1-5.24,3.61,55.67,55.67,0,0,0-5.58,2.51,37.7,37.7,0,0,0-16,17.38A37.22,37.22,0,0,0,26.93,63a101,101,0,0,1,12.6-3.07c3.78-.66,7.61-1,11.41-1.51,7-1,12.51-5.06,16.37-11a19.88,19.88,0,0,1-10.54,38.3,26.7,26.7,0,0,0,8.81,10.82,26.31,26.31,0,0,0,6.36,3.35,6.9,6.9,0,0,0,3.23.71,18,18,0,0,0,3.74-1.36,37.37,37.37,0,0,0,22-41.77ZM40.81,45a10,10,0,0,1,8.36-2.83A10.07,10.07,0,0,1,38,53.36,10,10,0,0,1,40.81,45Zm19.6,57.06A37.4,37.4,0,0,1,27.76,73a53,53,0,0,1,26.55-6.44A26.16,26.16,0,0,0,50.07,82.8,26.43,26.43,0,0,0,60.41,102.06Z"/>
  </symbol>

  <symbol id="electric" viewBox="0 0 128 128">
    <circle fill="#f3d23b" cx="64" cy="64" r="64"/>
    <polygon fill="#fff" points="43 29 74 29 87 70 67 69 79 103 31 53.5 54 53.5 43 29"/>
  </symbol>

  <symbol id="fairy" viewBox="0 0 128 128">
    <circle fill="#ec8fe6" cx="64" cy="64" r="64"/>
    <path fill="#fff" d="M111,64,86,50.34l3.46-11.83L77.66,42,64,17,50.34,42,38.51,38.51,42,50.34,17,64,42,77.66,38.51,89.49,50.34,86,64,111,77.66,86l11.83,3.46L86,77.66ZM70.72,70.72,64,83,57.28,70.72,45,64l12.28-6.72L64,45l6.72,12.28L83,64Z"/>
  </symbol>

  <symbol id="fighting" viewBox="0 0 128 128">
    <circle fill="#ce4069" cx="64" cy="64" r="64"/>
    <path fill="#fff" d="M22.93,81.14l5,12.19A4.19,4.19,0,0,0,36,91.74V56.26a4.19,4.19,0,0,0-8.07-1.59l-5,12.19A18.78,18.78,0,0,0,22.93,81.14Z"/>
    <path fill="#fff" d="M101.5,91.25V38.75a5.25,5.25,0,0,0-5.25-5.25h-2.5a5.25,5.25,0,0,0-5.25,5.25V55.83a1.67,1.67,0,0,1-1.67,1.67h0a1.66,1.66,0,0,1-1.66-1.67V38.75a5.25,5.25,0,0,0-5.25-5.25h-2.5a5.25,5.25,0,0,0-5.25,5.25V55.83A1.67,1.67,0,0,1,70.5,57.5h0a1.67,1.67,0,0,1-1.67-1.67V38.75a5.25,5.25,0,0,0-5.25-5.25h-2.5a5.25,5.25,0,0,0-5.25,5.25V55.83a1.66,1.66,0,0,1-1.66,1.67h0a1.67,1.67,0,0,1-1.67-1.67V38.75a5.25,5.25,0,0,0-5.25-5.25h-2.5a5.25,5.25,0,0,0-5.25,5.25v52.5a5.25,5.25,0,0,0,5.25,5.25h51.5A5.25,5.25,0,0,0,101.5,91.25Z"/>
  </symbol>

  <symbol id="fire" viewBox="0 0 128 128">
    <circle fill="#ff9c54" cx="64" cy="64" r="64"/>
    <path fill="#fff" d="M85.66,42.61c10.26,7.29,16.23,20.77,11.7,33C93.1,87.14,81.19,94.35,69.19,94.69A14,14,0,1,0,52.08,75.08c-5,9.6,2.9,19.17,11.52,23,9.77,4.36,21.06,1.14,28.9-5.6C79,111,51.67,114.29,36.67,95.81c-10.2-12.57-10.44-31-1.17-44.31C33.27,58.71,35,66,41,70c-6-12-2-21.09,6.14-29.14,3.92-3.88,8.91-5.36,13-8.75,4.5-3.72,5.09-9.9,4.23-15.33a20.61,20.61,0,0,1,11,19.72C64,36.55,59.83,52.37,69.85,58,79.61,63.52,90.94,52.54,85.66,42.61Z"/>
  </symbol>

  <symbol id="flying" viewBox="0 0 128 128">
    <circle fill="#92aade" cx="64" cy="64" r="64"/>
    <path fill="#fdfdfe" d="M98,76.08c-4.21,7.12-9.47,10.2-16.25,11-1.65.18-3.34,0-5,.25-1.19.15-2,1.43-1,2,4.86,2.67.46,3.93-.87,5a30.52,30.52,0,0,1-48.26-32A30.13,30.13,0,0,1,54.14,39.84c8.3-.37,16.64-.33,25-.1C89.83,40,99.62,38,107.47,29.31c1.45,2.41.84,4.53.49,6.49A30.76,30.76,0,0,1,78.15,61.13c-3,.07-6,0-9,.08-1,0-2.14.23-2.15,1.5,0,1,1,1.28,1.83,1.23,11-.55,22.44,2.44,32.44-4.74.73-.53,1.6-1.57,2.55-.5.78.87.21,1.89-.28,2.76C99.1,69.39,92.49,74.17,83.32,75c-2.64.24-5.32,0-8,.15-1.54.08-4.14-.72-4.22,1.35-.09,2.38,2.56,1.42,4,1.4C82.36,77.82,89.67,78.82,98,76.08Z"/>
  </symbol>

  <symbol id="ghost" viewBox="0 0 128 128">
    <circle fill="#5269ac" cx="64" cy="64" r="64"/>
    <path fill="#fff" d="M100.25,63C100.25,29.75,59,12.2,35,35.27c-24.16,23.28-7.54,65.19,26,66.21,17.5,0,25.54-1.47,37.92-4.64a36.21,36.21,0,0,1-10.23-6.35A38.38,38.38,0,0,0,100.25,63Zm-54,3a9.25,9.25,0,0,1-2.64-18.11,10.11,10.11,0,0,0-.11,1.36,9.23,9.23,0,0,0,11.89,8.86A9.25,9.25,0,0,1,46.25,66Zm30.89,0A9.24,9.24,0,0,1,68,58.11a9.23,9.23,0,0,0,11.89-8.86,10.11,10.11,0,0,0-.11-1.36A9.25,9.25,0,0,1,77.14,66Z"/>
  </symbol>

  <symbol id="grass" viewBox="0 0 128 128">
    <circle fill="#63bb5b" cx="64" cy="64" r="64"/>
    <path fill="#fff" d="M99.76,26.37c-2.71-2.38-13.54.23-16.62.6a142.29,142.29,0,0,0-30,6.62c-10.05,3.55-18.25,8.67-23,18.6a37.09,37.09,0,0,0,4.39,38.52c2.19-2.33,5.33-4.68,7.06-7.36,2.31-3.57,1.05-10.7,1.22-15.18.05-1.32.54-19.59,1.43-19.65,1.08-.07,3.87,17.86,4.87,24.54a1.2,1.2,0,0,0,2,.67q3.57-3.53,7.17-7c1.64-1.59,2.46-2.21,2.9-4.28s.11-4.89.25-7.08c.08-1.3,1-17.76,2.18-17.84s3.65,12.83,4.57,17.66a1,1,0,0,0,1.61.5c4.86-4.71,20-19.43,20.71-18.77s-11.86,17.56-15.89,23a1,1,0,0,0,.71,1.53c4.91.27,18,1.12,18.11,2.2s-16.22,4.28-17.4,4.51c-2,.41-4.23.55-6.23,1.07-2.56.67-3,1.3-4.61,3.54q-3,4-6,8a1.21,1.21,0,0,0,.94,1.94c6.76.11,24.89.52,25,1.6.05.9-18,3.78-19.3,4-4.13.71-11.11.43-14.42,2.61-2.55,1.68-4.9,6.18-6.84,8.56a37.05,37.05,0,0,0,37.66,0c9.6-5.73,14-14.44,16.34-25a138.36,138.36,0,0,0,2.8-31.13c0-3.8-.14-7.61-.52-11.39C100.7,30.69,100.83,27.31,99.76,26.37Z"/>
  </symbol>

  <symbol id="ground" viewBox="0 0 128 128">
    <circle fill="#d97746" cx="64" cy="64" r="64"/>
    <polygon fill="#fff" points="89 32 59 32 39 88 109 88 89 32"/>
    <polygon fill="#fff" points="48 43 32 43 16 88 32 88 48 43"/>
  </symbol>

  <symbol id="ice" viewBox="0 0 128 128">
    <circle fill="#74cec0" cx="64" cy="64" r="64"/>
    <path fill="#fff" d="M60.13,64.26,38.05,76.7,16.76,64l21-12.15ZM90,51.3,67.87,63.74,90.2,76.19l21-12.15ZM61.45,35.21l-21-12.14L40,47.87,61.84,60.78ZM88,80.13,66.16,67.22l.39,25.57,21,12.14ZM87.66,47.4V23.1L66,35.18l-.27,25.34ZM62,92.82l.27-25.34L40.34,80.6v24.3Z"/>
  </symbol>

  <symbol id="normal" viewBox="0 0 128 128">
    <circle fill="#9099a1" cx="64" cy="64" r="64"/>
    <path fill="#fff" d="M64,104a40,40,0,1,1,40-40A40,40,0,0,1,64,104Zm0-64A24,24,0,1,0,88,64,24,24,0,0,0,64,40Z"/>
  </symbol>

  <symbol id="poison" viewBox="0 0 128 128">
    <circle fill="#ab6ac8" cx="64" cy="64" r="64"/>
    <path fill="#fff" d="M104,59c0-18.41-17.91-33.33-40-33.33S24,40.59,24,59c0,10,5.33,19,13.75,25.14A14,14,0,0,0,36,91c0,6.63,4.33,12,9.67,12,4.16,0,7.7-3.27,9.07-7.84C55.93,99.69,59.62,103,64,103s8.07-3.31,9.26-7.84c1.37,4.57,4.91,7.84,9.07,7.84C87.67,103,92,97.63,92,91a14,14,0,0,0-1.75-6.86C98.67,78,104,69,104,59ZM64,79.33C49.36,79.33,37,70,37,59S49.36,38.67,64,38.67,91,48,91,59,78.64,79.33,64,79.33Z"/>
  </symbol>

  <symbol id="psychic" viewBox="0 0 128 128">
    <circle fill="#f97176" cx="64" cy="64" r="64"/>
    <path fill="#fef5f5" d="M84.54,95.52c-17.55,9.39-41.48,5.06-51.87-12.8-9.5-16.31-4.33-39.23,11.57-49.56s39.1-5.67,50.1,9.48c12.83,17.66,3.22,44.14-19.41,46.25-9.52.88-20-3.53-24.6-12.3-4.1-7.9-2.13-19.38,5.36-24.6S75.3,47.73,79.1,57c1.61,3.94,1,9.31-2.06,12.43C74.46,72,68.46,73,65.67,70c-1-1.1-2.09-3.15-.15-3.93.76-.3,2.7,1,3.61,1,4.19-.06,5.52-5.35,3.37-8.46-2.61-3.76-8.38-3.48-11.66-.93-4,3.12-4.5,8.29-2.77,12.8,3.36,8.71,14.29,10.68,21.74,5.7,7.24-4.85,8.34-16.5,4.67-23.87-5-10.11-18.82-13.08-28.79-9.47s-15.76,13.28-16,23.58A28.92,28.92,0,0,0,51.39,90.17C61.13,97.29,73.2,95.52,84.54,95.52Z"/>
  </symbol>

  <symbol id="rock" viewBox="0 0 128 128">
    <circle fill="#c7b78b" cx="64" cy="64" r="64"/>
    <path fill="#fff" d="M95,34l10,31L92,81,83,67ZM74,101,88,85,78,71,47,92ZM52,34,24,64l1,21,15,5L77,65,88,34Z"/>
  </symbol>

  <symbol id="steel" viewBox="0 0 128 128">
    <circle fill="#5a8ea1" cx="64" cy="64" r="64"/>
    <path fill="#fff" d="M84,64A20,20,0,1,1,64,44,20,20,0,0,1,84,64Zm1.75-37.67H42.25L20.5,64l21.75,37.67h43.5L107.5,64Z"/>
  </symbol>

  <symbol id="water" viewBox="0 0 128 128">
    <circle fill="#4d90d5" cx="64" cy="64" r="64"/>
    <path fill="#fff" d="M92.5,76a28.5,28.5,0,0,1-57,0c0-15.74,23-50.5,28.5-50.5S92.5,60.26,92.5,76Zm-25,9.5a15,15,0,0,1-15-15,14.85,14.85,0,0,1,1.12-5.67A17,17,0,1,0,80,79c0-.07,0-.13,0-.2A15,15,0,0,1,67.5,85.5Z"/>
  </symbol>
</svg>
